# AST/ASF file generated using VICON BodyLanguage
# -----------------------------------------------
:version 1.10
:name VICON
:units
  mass 1.0
  length 0.45
  angle deg
:documentation
   .ast/.asf automatically generated from VICON data using
   VICON BodyBuilder and BodyLanguage model FoxedUp or BRILLIANT.MOD
:root
   order TX TY TZ RX RY RZ
   axis XYZ
   position 0 0 0  
   orientation 0 0 0 
:bonedata
  begin
     id 1 
     name lhipjoint
     direction 0.643824 -0.71708 0.266994 
     length 2.52133 
     axis 0 0 0  XYZ
  end
  begin
     id 2 
     name lfemur
     direction 0.34202 -0.939693 0  
     length 7.51824  
     axis 0 0 20  XYZ
    dof rx ry rz
    limits (-160.0 20.0)
           (-70.0 70.0)
           (-60.0 70.0)
  end
  begin
     id 3 
     name ltibia
     direction 0.34202 -0.939693 0   
     length 7.3685   
     axis 0 0 20   XYZ
    dof rx
    limits (-10.0 170.0)
  end
  begin
     id 4 
     name lfoot
     direction 0.105419 -0.289636 0.951314   
     length 2.20972   
     axis -90 7.62852e-016 20   XYZ
    dof rx rz
    limits (-45.0 90.0)
           (-70.0 20.0)
  end
  begin
     id 5 
     name ltoes
     direction 1.53549e-011 -4.21833e-011 1   
     length 1.10139   
     axis -90 7.62852e-016 20   XYZ
    dof rx
    limits (-90.0 20.0)
  end
  begin
     id 6 
     name rhipjoint
     direction -0.608823 -0.743445 0.276811   
     length 2.43192  
     axis 0 0 0  XYZ 
  end
  begin
     id 7 
     name rfemur
     direction -0.34202 -0.939693 0   
     length 7.69715   
     axis 0 0 -20   XYZ
    dof rx ry rz
    limits (-160.0 20.0)
           (-70.0 70.0)
           (-70.0 60.0)
  end
  begin
     id 8 
     name rtibia
     direction -0.34202 -0.939693 0   
     length 7.44924   
     axis 0 0 -20   XYZ
    dof rx
    limits (-10.0 170.0)
 end
 begin
     id 9 
     name rfoot
     direction -0.103614 -0.284677 0.953007   
     length 2.22623  
     axis -90 -7.62852e-016 -20   XYZ
    dof rx rz
    limits (-45.0 90.0)
           (-20.0 70.0)
  end
  begin
     id 10 
     name rtoes
     direction -1.53537e-011 -4.22026e-011 1   
     length 1.11   
     axis -90 -7.62852e-016 -20   XYZ
    dof rx
    limits (-90.0 20.0)
  end
  begin
     id 11 
     name lowerback
     direction -0.0101212 0.99662 -0.0815298   
     length 2.08277   
     axis 0 0 0   XYZ
    dof rx ry rz
    limits (-20.0 45.0)
           (-30.0 30.0)
           (-30.0 30.0)
  end
  begin
     id 12 
     name upperback
     direction 0.024314 0.999591 -0.0150645   
     length 2.08524   
     axis 0 0 0   XYZ
    dof rx ry rz
    limits (-20.0 45.0)
           (-30.0 30.0)
           (-30.0 30.0)
  end
  begin
     id 13 
     name thorax
     direction 0.0285959 0.999323 0.0231357   
     length 2.09645   
     axis 0 0 0   XYZ
    dof rx ry rz
    limits (-20.0 45.0)
           (-30.0 30.0)
           (-30.0 30.0)
  end
  begin
     id 14 
     name lowerneck
     direction -0.065512 0.979301 0.191515   
     length 1.63798   
     axis 0 0 0   XYZ
    dof rx ry rz
    limits (-20.0 45.0)
           (-30.0 30.0)
           (-30.0 30.0)
  end
  begin
     id 15 
     name upperneck
     direction 0.0498479 0.98191 -0.182667   
     length 1.68731   
     axis 0 0 0   XYZ
    dof rx ry rz
    limits (-20.0 45.0)
           (-30.0 30.0)
           (-30.0 30.0)
  end
  begin
     id 16
     name head
     direction 0.0230358 0.996257 -0.0833175  
     length 1.69785  
     axis 0 0 0   XYZ
    dof rx ry rz
    limits (-20.0 45.0)
           (-30.0 30.0)
           (-30.0 30.0)
  end
  begin
     id 17 
     name lclavicle
     direction 0.967963 0.201165 -0.150269  
     length 3.63976  
     axis 0 0 0   XYZ
    dof ry rz
    limits (-20.0 10.0)
           (0.0 20.0)
  end
  begin
     id 18 
     name lhumerus
     direction 1 -4.48954e-011 -2.92837e-028   
     length 5.32462   
     axis 180 -30 -90   XYZ
    dof rx ry rz
    limits (-60.0 90.0)
           (-90.0 90.0)
           (-90.0 90.0)
  end
  begin
     id 19
     name lradius
     direction 1 -4.48958e-011 -6.39511e-027   
     length 3.48402   
     axis 180 -30 -90   XYZ
    dof rx
    limits (-10.0 170.0)
  end
  begin
     id 20
     name lwrist
     direction 1 -4.48975e-011 -1.1413e-026   
     length 1.74201   
     axis 6.88575e-015 90 90   XYZ
    dof ry
    limits (-180.0 0.0)
 end
  begin
     id 21 
     name lhand
     direction 1 -4.48899e-011 -2.28192e-026   
     length 0.572476   
     axis 1.45643e-014 90 90   XYZ
    dof rx rz
    limits (-90.0 90.0)
           (-45.0 45.0)
  end
  begin
     id 22 
     name lfingers
     direction 1 -4.49155e-011 -4.5684e-026   
     length 0.461545   
     axis 2.91283e-014 90 90   XYZ
    dof rx
    limits (0.0 90.0)
  end
  begin
     id 23
     name lthumb
     direction 0.707107 -6.34943e-011 0.707107   
     length 0.662688   
     axis -90 45 -2.25915e-014   XYZ
    dof rx rz
    limits (-45.0 45.0)
           (-45.0 45.0)
  end
  begin
     id 24 
     name rclavicle
     direction -0.964103 0.264019 -0.0282629   
     length 3.54491  
     axis 0 0 0   XYZ 
    dof ry rz
    limits (-10.0 20.0)
           (-20.0 0.0)
  end
  begin
     id 25 
     name rhumerus
     direction -1 -4.48964e-011 -2.45032e-027  
     length 5.33589   
     axis 180 30 90   XYZ
    dof rx ry rz
    limits (-90.0 60.0)
           (-90.0 90.0)
           (-90.0 90.0)
  end
  begin
     id 26 
     name rradius
     direction -1 -4.48987e-011 -1.55093e-027   
     length 3.64134   
     axis 180 30 90   XYZ
    dof rx
    limits (-10.0 170.0)
  end
  begin
     id 27 
     name rwrist
     direction -1 -4.4897e-011 -1.14128e-026   
     length 1.82067   
     axis 6.88575e-015 -90 -90   XYZ
    dof ry
    limits (-180.0 0.0)
  end
  begin
     id 28
     name rhand
     direction -1 -4.49021e-011 -2.28301e-026   
     length 0.734811   
     axis 1.45643e-014 -90 -90   XYZ
    dof rx rz
    limits (-90.0 90.0)
           (-45.0 45.0)
  end
  begin
     id 29
     name rfingers
     direction -1 -4.48862e-011 -4.56319e-026   
     length 0.592424   
     axis 2.91283e-014 -90 -90   XYZ
    dof rx
    limits (0.0 90.0)
  end
  begin
     id 30
     name rthumb
     direction -0.707107 -6.34978e-011 0.707107   
     length 0.850605   
     axis -90 -45 2.25915e-014   XYZ
    dof rx rz
    limits (-45.0 45.0)
           (-45.0 45.0)
  end
:hierarchy
  begin
    root lhipjoint rhipjoint lowerback
    lhipjoint lfemur
    lfemur ltibia
    ltibia lfoot
    lfoot ltoes
    rhipjoint rfemur
    rfemur rtibia
    rtibia rfoot
    rfoot rtoes
    lowerback upperback
    upperback thorax
    thorax lowerneck lclavicle rclavicle
    lowerneck upperneck
    upperneck head
    lclavicle lhumerus
    lhumerus lradius
    lradius lwrist
    lwrist lhand lthumb
    lhand lfingers
    rclavicle rhumerus
    rhumerus rradius
    rradius rwrist
    rwrist rhand rthumb
    rhand rfingers
  end

#!OML:ASF F:\VICON\USERDATA\INSTALL\rory3\rory3.ASF
:FULLY-SPECIFIED
:DEGREES
1
root 0.847372 17.7437 -5.2827 2.21542 -39.2985 3.35917
lowerback 3.34114 -0.336749 -5.77629
upperback 0.537077 -0.634934 1.62818
thorax -1.23958 -0.292564 4.95942
lowerneck -23.3668 -5.85783 -12.9636
upperneck 12.4582 -5.031 6.87064
head 8.15812 -2.33118 3.71228
rclavicle 6.68413e-014 -1.35174e-014
rhumerus -31.5228 -0.721162 -79.8965
rradius 35.0249
rwrist 13.3637
rhand -18.2 6.84353
rfingers 7.12502
rthumb 8.0773 -22.9821
lclavicle 6.68413e-014 -1.35174e-014
lhumerus -30.2942 12.7433 82.0492
lradius 28.4107
lwrist -12.0214
lhand -13.2524 23.4919
lfingers 7.12502
lthumb 12.8499 53.0764
rfemur -9.9467 10.6341 14.9527
rtibia 31.2396
rfoot -20.2499 2.73062
rtoes 5.73158
lfemur -17.757 -0.277694 -20.2068
ltibia 27.4258
lfoot -10.1721 5.28226
ltoes -9.68739
2
root 0.862528 17.7443 -5.24934 2.35308 -39.638 3.25839
lowerback 3.3275 -0.288916 -5.82631
upperback 0.479801 -0.573266 1.61172
thorax -1.29876 -0.258011 4.96838
lowerneck -23.1403 -5.94669 -13.0418
upperneck 11.6925 -5.11656 6.76935
head 7.86952 -2.37755 3.67396
rclavicle -5.30755e-014 1.66979e-014
rhumerus -31.3413 -0.335125 -79.8358
rradius 35.4937
rwrist 12.7528
rhand -18.1311 6.5689
rfingers 7.12502
rthumb 8.14382 -23.2542
lclavicle -5.30755e-014 1.66979e-014
lhumerus -30.4007 12.5147 81.9971
lradius 28.6194
lwrist -11.6622
lhand -13.1831 23.5746
lfingers 7.12502
lthumb 12.9167 53.1548
rfemur -10.0333 10.7515 14.8765
rtibia 31.1921
rfoot -20.1883 2.88207
rtoes 5.36607
lfemur -17.8178 -0.175948 -20.2364
ltibia 27.5824
lfoot -10.3348 5.36767
ltoes -10.1852
3
root 0.879896 17.7437 -5.21856 2.40569 -39.8329 3.19366
lowerback 3.42564 -0.268442 -5.88516
upperback 0.402199 -0.555136 1.61971
thorax -1.4358 -0.242015 5.0111
lowerneck -22.7878 -6.08741 -13.3998
upperneck 10.9283 -5.24202 6.87643
head 7.58154 -2.43676 3.74852
rclavicle -3.76697e-014 -1.43125e-014
rhumerus -31.2752 0.228411 -79.6965
rradius 36.2086
rwrist 11.9865
rhand -17.9249 6.17906
rfingers 7.12502
rthumb 8.34282 -23.6362
lclavicle -3.76697e-014 -1.43125e-014
lhumerus -30.5484 12.4469 81.9816
lradius 28.7367
lwrist -11.5328
lhand -13.0371 23.5452
lfingers 7.12502
lthumb 13.0575 53.1165
rfemur -10.0281 10.8097 14.805
rtibia 31.1673
rfoot -20.155 2.95154
rtoes 4.78518
lfemur -17.8135 -0.250028 -20.2784
ltibia 27.6986
lfoot -10.4811 5.53575
ltoes -9.81941
4
root 0.895313 17.7427 -5.18692 2.36608 -40.0779 3.20857
lowerback 3.44009 -0.251292 -6.00543
upperback 0.41168 -0.537689 1.60656
thorax -1.4354 -0.232913 5.06504
lowerneck -22.404 -6.19531 -13.7554
upperneck 9.91654 -5.31993 6.94936
head 7.2025 -2.47206 3.81802
rclavicle 4.90501e-014 -7.95139e-015
rhumerus -31.0514 0.896612 -79.5649
rradius 36.92
rwrist 11.243
rhand -18.0372 6.17328
rfingers 7.12502
rthumb 8.23441 -23.6462
lclavicle 4.90501e-014 -7.95139e-015
lhumerus -30.6133 12.6979 81.8668
lradius 28.8482
lwrist -11.6782
lhand -12.8905 23.5383
lfingers 7.12502
lthumb 13.1988 53.1005
rfemur -9.9992 10.7795 14.6665
rtibia 31.1481
rfoot -20.0662 3.08133
rtoes 3.88499
lfemur -17.7637 -0.146926 -20.3972
ltibia 27.8128
lfoot -10.6286 5.63911
ltoes -9.32153
5
root 0.909167 17.7412 -5.14916 2.29286 -40.3064 3.25424
lowerback 3.38238 -0.261754 -6.10403
upperback 0.441495 -0.552027 1.54954
thorax -1.36989 -0.24269 5.06117
lowerneck -21.986 -6.31069 -13.9624
upperneck 8.85946 -5.44769 6.93741
head 6.80514 -2.53176 3.83065
rclavicle -3.04638e-014 3.18055e-015
rhumerus -30.7187 1.26318 -79.4236
rradius 37.6391
rwrist 10.8098
rhand -18.3267 6.11242
rfingers 7.12502
rthumb 7.95501 -23.7179
lclavicle -3.04638e-014 3.18055e-015
lhumerus -30.6759 12.8664 81.6951
lradius 28.962
lwrist -11.7221
lhand -12.8362 23.4955
lfingers 7.12502
lthumb 13.2511 53.0543
rfemur -9.95047 10.5902 14.4792
rtibia 31.1482
rfoot -19.9181 3.40212
rtoes 3.67704
lfemur -17.6598 -0.0504469 -20.5687
ltibia 27.9053
lfoot -10.8036 5.70981
ltoes -9.1735
6
root 0.92403 17.7413 -5.11237 2.18617 -40.593 3.33105
lowerback 3.36483 -0.241148 -6.17936
upperback 0.476718 -0.527244 1.42967
thorax -1.32733 -0.232541 4.97713
lowerneck -21.7116 -6.41792 -14.021
upperneck 7.91142 -5.58399 6.86844
head 6.46403 -2.59409 3.80072
rclavicle 7.03201e-014 6.75868e-015
rhumerus -30.3629 1.49624 -79.2175
rradius 38.4712
rwrist 10.601
rhand -18.2826 6.37318
rfingers 7.12502
rthumb 7.99756 -23.4555
lclavicle 7.03201e-014 6.75868e-015
lhumerus -30.6422 12.5613 81.5967
lradius 29.0444
lwrist -11.3557
lhand -13.0743 23.5986
lfingers 7.12502
lthumb 13.0216 53.1722
rfemur -9.90137 10.46 14.2693
rtibia 31.1572
rfoot -19.8008 3.63767
rtoes 2.7484
lfemur -17.5396 0.158613 -20.7697
ltibia 28.0157
lfoot -10.9783 5.80234
ltoes -9.1616
7
root 0.939202 17.7414 -5.08031 2.15854 -40.8872 3.3684
lowerback 3.35471 -0.277776 -6.32707
upperback 0.48086 -0.581211 1.39605
thorax -1.30911 -0.259638 5.02795
lowerneck -21.4242 -6.48368 -14.2065
upperneck 6.8579 -5.63901 6.84745
head 6.08549 -2.61538 3.81962
rclavicle 8.97513e-014 -3.18055e-015
rhumerus -29.9062 2.13777 -78.9497
rradius 39.3362
rwrist 10.2331
rhand -18.393 6.57923
rfingers 7.12502
rthumb 7.89103 -23.2535
lclavicle 8.97513e-014 -3.18055e-015
lhumerus -30.6423 12.4709 81.5031
lradius 29.1839
lwrist -10.8955
lhand -13.0833 24.0083
lfingers 7.12502
lthumb 13.0129 53.5825
rfemur -9.94293 10.4368 14.1008
rtibia 31.1836
rfoot -19.6854 3.86267
rtoes 2.48875
lfemur -17.5023 0.351522 -20.925
ltibia 28.1331
lfoot -11.1023 5.95317
ltoes -9.19124
8
root 0.95063 17.7439 -5.05728 2.61665 -41.945 3.17047
lowerback 3.06238 -0.118702 -6.58278
upperback 0.344375 -0.35939 1.52761
thorax -1.31359 -0.142981 5.29991
lowerneck -21.0987 -6.55603 -14.5116
upperneck 5.7726 -5.67597 6.78711
head 5.69329 -2.6331 3.84863
rclavicle -5.62561e-014 -2.70347e-014
rhumerus -29.3396 2.9776 -78.5551
rradius 40.2135
rwrist 9.81544
rhand -18.5237 6.43511
rfingers 7.12502
rthumb 7.76487 -23.4023
lclavicle -5.62561e-014 -2.70347e-014
lhumerus -30.8794 12.8757 81.3576
lradius 29.4678
lwrist -10.7657
lhand -12.8639 24.2282
lfingers 7.12502
lthumb 13.2244 53.7887
rfemur -10.5809 10.9258 13.9964
rtibia 31.2421
rfoot -19.4316 4.30432
rtoes 2.74469
lfemur -17.7617 0.961638 -20.8679
ltibia 28.2427
lfoot -11.1991 6.41868
ltoes -8.85536
9
root 0.963987 17.7407 -5.02266 2.65329 -42.3455 3.1856
lowerback 2.95648 -0.129123 -6.72891
upperback 0.333359 -0.371553 1.48946
thorax -1.26316 -0.149887 5.34269
lowerneck -20.8286 -6.64893 -14.6217
upperneck 4.75311 -5.78886 6.70638
head 5.33517 -2.68289 3.8326
rclavicle 3.32467e-014 1.31198e-014
rhumerus -28.7611 3.76386 -78.2472
rradius 41.2215
rwrist 9.43423
rhand -18.8806 6.16248
rfingers 7.12502
rthumb 7.42038 -23.6874
lclavicle 3.32467e-014 1.31198e-014
lhumerus -31.0249 12.8349 81.2154
lradius 29.7127
lwrist -10.5798
lhand -12.9201 24.0539
lfingers 7.12502
lthumb 13.1702 53.6179
rfemur -10.7141 11.0434 13.8284
rtibia 31.305
rfoot -19.4257 4.46523
rtoes 2.18647
lfemur -17.7539 1.08434 -21.0027
ltibia 28.3443
lfoot -11.3065 6.67788
ltoes -8.29605
10
root 0.979818 17.7363 -4.98664 2.46078 -42.4675 3.29786
lowerback 3.00899 -0.222693 -6.8643
upperback 0.386058 -0.504552 1.39649
thorax -1.21877 -0.219214 5.32741
lowerneck -20.6777 -6.73416 -14.7405
upperneck 3.81543 -5.88987 6.76168
head 5.02721 -2.71643 3.86393
rclavicle -8.41853e-014 7.95139e-015
rhumerus -28.1682 4.37064 -77.8521
rradius 42.3764
rwrist 9.08942
rhand -18.8517 6.28702
rfingers 7.12502
rthumb 7.44834 -23.5619
lclavicle -8.41853e-014 7.95139e-015
lhumerus -31.0569 12.7018 81.0165
lradius 29.8516
lwrist -10.3298
lhand -12.8701 23.8067
lfingers 7.12502
lthumb 13.2184 53.3676
rfemur -10.6176 10.8744 13.6445
rtibia 31.3816
rfoot -19.4134 4.52333
rtoes 0.975894
lfemur -17.6025 1.01021 -21.2099
ltibia 28.4491
lfoot -11.4233 6.83097
ltoes -8.49182
11
root 0.994888 17.7368 -4.95131 2.40865 -42.7278 3.26936
lowerback 3.01115 -0.269552 -6.9191
upperback 0.384448 -0.569986 1.32854
thorax -1.21246 -0.252013 5.28983
lowerneck -20.3289 -6.8293 -14.785
upperneck 2.70494 -6.04432 6.71769
head 4.63655 -2.78159 3.85128
rclavicle 5.06901e-015 8.74653e-015
rhumerus -27.5562 4.74543 -77.3941
rradius 43.5836
rwrist 8.793
rhand -19.1377 6.3736
rfingers 7.12502
rthumb 7.17225 -23.4849
lclavicle 5.06901e-015 8.74653e-015
lhumerus -31.1625 12.482 80.8345
lradius 30.0374
lwrist -9.90693
lhand -13.0474 23.7498
lfingers 7.12502
lthumb 13.0475 53.3217
rfemur -10.6117 10.8518 13.5762
rtibia 31.4503
rfoot -19.3349 4.51602
rtoes 0.176282
lfemur -17.4906 1.07914 -21.3012
ltibia 28.5433
lfoot -11.5384 7.00077
ltoes -8.48913
12
root 1.01184 17.7352 -4.91734 2.39379 -43.0475 3.26528
lowerback 3.03196 -0.294543 -6.9859
upperback 0.325294 -0.609824 1.24459
thorax -1.28004 -0.267456 5.24198
lowerneck -19.93 -6.94196 -14.8382
upperneck 1.58771 -6.23045 6.66685
head 4.24194 -2.86329 3.83811
rclavicle 5.67779e-014 -3.97569e-015
rhumerus -26.882 5.00061 -76.8731
rradius 44.8015
rwrist 8.7499
rhand -19.6725 6.95253
rfingers 7.12502
rthumb 6.65594 -22.9229
lclavicle 5.67779e-014 -3.97569e-015
lhumerus -31.3722 12.1845 80.6681
lradius 30.2354
lwrist -9.49535
lhand -13.3305 23.6054
lfingers 7.12502
lthumb 12.7746 53.1946
rfemur -10.6698 11.1607 13.4779
rtibia 31.5256
rfoot -19.3781 4.36418
rtoes -0.58278
lfemur -17.4183 1.09725 -21.4077
ltibia 28.6089
lfoot -11.697 7.19113
ltoes -7.78251
13
root 1.02736 17.736 -4.88187 2.44687 -43.3994 3.17048
lowerback 2.98963 -0.283352 -6.9229
upperback 0.299025 -0.591944 1.13752
thorax -1.28781 -0.257994 5.09321
lowerneck -19.5562 -7.13126 -15.0834
upperneck 0.509724 -6.4902 6.86691
head 3.88924 -2.96835 3.92913
rclavicle 7.15625e-015 1.47101e-014
rhumerus -26.2062 5.39664 -76.3021
rradius 46.2017
rwrist 8.6603
rhand -19.8396 7.01042
rfingers 7.12502
rthumb 6.49468 -22.87
lclavicle 7.15625e-015 1.47101e-014
lhumerus -31.4954 11.9575 80.4501
lradius 30.4771
lwrist -9.01635
lhand -13.1066 23.9251
lfingers 7.12502
lthumb 12.9904 53.5007
rfemur -10.7188 11.4395 13.4389
rtibia 31.5922
rfoot -19.3887 4.23619
rtoes -2.03078
lfemur -17.3345 1.09997 -21.4575
ltibia 28.663
lfoot -11.8258 7.5095
ltoes -7.22016
